<svg xmlns="http://www.w3.org/2000/svg" viewBox="0 0 100 100" width="100" height="100">
  <defs>
    <linearGradient id="bookGrad" x1="0%" y1="0%" x2="100%" y2="100%">
      <stop offset="0%" style="stop-color:#704214;stop-opacity:1" />
      <stop offset="100%" style="stop-color:#6B7A4F;stop-opacity:1" />
    </linearGradient>
  </defs>
  
  <!-- Left page -->
  <path d="M 15 20 L 15 80 Q 15 85 20 85 L 45 85 Q 50 85 50 80 L 50 20 Q 50 15 45 15 L 20 15 Q 15 15 15 20 Z" 
        fill="#F7F3E9" stroke="#704214" stroke-width="2"/>
  
  <!-- Right page -->
  <path d="M 50 20 L 50 80 Q 50 85 55 85 L 80 85 Q 85 85 85 80 L 85 20 Q 85 15 80 15 L 55 15 Q 50 15 50 20 Z" 
        fill="#F7F3E9" stroke="#704214" stroke-width="2"/>
  
  <!-- Book spine -->
  <path d="M 45 15 L 55 15 L 55 85 L 45 85 Z" fill="url(#bookGrad)"/>
  
  <!-- Left page text lines -->
  <line x1="22" y1="28" x2="43" y2="28" stroke="#704214" stroke-width="1" opacity="0.3"/>
  <line x1="22" y1="38" x2="43" y2="38" stroke="#704214" stroke-width="1" opacity="0.3"/>
  <line x1="22" y1="48" x2="43" y2="48" stroke="#704214" stroke-width="1" opacity="0.3"/>
  <line x1="22" y1="58" x2="43" y2="58" stroke="#704214" stroke-width="1" opacity="0.3"/>
  <line x1="22" y1="68" x2="43" y2="68" stroke="#704214" stroke-width="1" opacity="0.3"/>
  
  <!-- Right page text lines -->
  <line x1="57" y1="28" x2="78" y2="28" stroke="#704214" stroke-width="1" opacity="0.3"/>
  <line x1="57" y1="38" x2="78" y2="38" stroke="#704214" stroke-width="1" opacity="0.3"/>
  <line x1="57" y1="48" x2="78" y2="48" stroke="#704214" stroke-width="1" opacity="0.3"/>
  <line x1="57" y1="58" x2="78" y2="58" stroke="#704214" stroke-width="1" opacity="0.3"/>
  <line x1="57" y1="68" x2="78" y2="68" stroke="#704214" stroke-width="1" opacity="0.3"/>
</svg>
